<svg xmlns="http://www.w3.org/2000/svg" viewBox="0 0 1200 630" fill="none">
  <rect width="1200" height="630" fill="#121719"/>
  <path d="M0 470C220 392 361 418 543 486C749 563 948 552 1200 420V630H0V470Z" fill="#1e2f36"/>
  <rect x="0" y="0" width="1200" height="630" fill="url(#grad)" opacity="0.72"/>
  <g opacity="0.18" stroke="#82b8d0" stroke-width="1">
    <path d="M90 124H1110"/>
    <path d="M90 226H1110"/>
    <path d="M90 328H1110"/>
    <path d="M90 430H1110"/>
    <path d="M204 84V548"/>
    <path d="M396 84V548"/>
    <path d="M588 84V548"/>
    <path d="M780 84V548"/>
    <path d="M972 84V548"/>
  </g>
  <defs>
    <linearGradient id="grad" x1="0" y1="0" x2="1200" y2="630">
      <stop offset="0%" stop-color="#82b8d0" stop-opacity="0.55"/>
      <stop offset="52%" stop-color="#1f3b40" stop-opacity="0.32"/>
      <stop offset="100%" stop-color="#121719" stop-opacity="0"/>
    </linearGradient>
  </defs>
  <!-- Shield icon -->
  <g transform="translate(78, 86) scale(1.35)">
    <path d="M40 10L20 20v15c0 13.88 9.6 26.85 20 30 10.4-3.15 20-16.12 20-30V20L40 10z" fill="#82b8d0" fill-opacity="0.2"/>
    <path d="M40 14L24 22.4v13.1c0 11.1 7.68 21.48 16 24 8.32-2.52 16-12.9 16-24V22.4L40 14z" stroke="#82b8d0" stroke-width="2.5" fill="none"/>
    <path d="M33 36l5 5 9-10" stroke="#82b8d0" stroke-width="2.5" stroke-linecap="round" stroke-linejoin="round"/>
  </g>
  <!-- Text -->
  <text x="188" y="136" font-family="system-ui, -apple-system, sans-serif" font-size="40" font-weight="700" fill="#ffffff">Arkova</text>
  <text x="90" y="318" font-family="system-ui, -apple-system, sans-serif" font-size="78" font-weight="760" fill="#ffffff">Audits in hours,</text>
  <text x="90" y="406" font-family="system-ui, -apple-system, sans-serif" font-size="78" font-weight="760" fill="#ffffff">not weeks.</text>
  <text x="94" y="478" font-family="system-ui, -apple-system, sans-serif" font-size="30" fill="#a7d8e8">Compliance audit automation in early access</text>
  <text x="96" y="548" font-family="ui-monospace, SFMono-Regular, Menlo, monospace" font-size="20" fill="#82b8d0" letter-spacing="3">VERIFIED EVIDENCE • JURISDICTION-AWARE REPORTING</text>
</svg>
